<!DOCTYPE svg PUBLIC "-//W3C//DTD SVG 20010904//EN" "http://www.w3.org/TR/2001/REC-SVG-20010904/DTD/svg10.dtd">
<svg version="1.0" xmlns="http://www.w3.org/2000/svg" width="512px" height="512px" viewBox="0 0 5120 5120" preserveAspectRatio="xMidYMid meet">
<g id="layer101" fill="#6b7f9e" stroke="none">
<path d="M2230 5104 c-460 -63 -906 -253 -1268 -543 -514 -410 -848 -1010 -938 -1681 -35 -264 -18 -614 44 -865 l26 -110 6 -540 c5 -534 5 -540 27 -582 12 -22 39 -55 60 -72 68 -56 98 -61 400 -61 l273 0 103 -82 c368 -294 808 -480 1287 -544 167 -22 463 -22 630 0 577 77 1095 330 1495 731 399 399 656 923 730 1488 20 156 20 488 0 644 -152 1160 -1058 2066 -2218 2218 -150 19 -510 19 -657 -1z"/>
</g>
<g id="layer102" fill="#ff7069" stroke="none">
<path d="M2510 4690 l0 -430 40 0 40 0 0 -80 0 -80 35 0 35 0 0 -47 c0 -48 -1 -48 -147 -201 -120 -126 -183 -181 -352 -310 -113 -86 -238 -176 -277 -199 -40 -24 -86 -59 -102 -78 -28 -31 -30 -37 -21 -77 12 -52 34 -85 79 -115 58 -40 102 -32 320 56 145 59 199 77 213 70 16 -9 17 -35 17 -324 l0 -315 -1047 -2 c-1039 -3 -1048 -3 -1093 -24 -56 -26 -107 -76 -131 -129 -17 -38 -19 -85 -19 -800 l0 -760 24 -51 c13 -28 41 -65 62 -82 80 -66 -58 -62 1938 -62 l1811 0 50 24 c59 27 117 88 136 142 11 32 14 179 14 790 l0 750 -30 60 c-36 70 -97 116 -175 133 -28 6 -124 11 -214 11 l-164 0 13 38 c9 26 14 168 19 488 l6 451 -45 133 c-43 128 -45 139 -45 251 0 64 3 131 6 148 6 27 10 31 40 31 l34 0 0 80 0 80 39 0 c29 0 41 5 45 18 2 9 6 147 8 307 l3 289 -100 43 c-300 129 -644 203 -936 203 l-129 0 0 -430z"/>
</g>
<g id="layer103" fill="#83ce8f" stroke="none">
<path d="M2590 4180 l0 -80 35 0 35 0 0 -47 c0 -48 -1 -48 -147 -201 -120 -126 -183 -181 -352 -310 -113 -86 -238 -176 -277 -199 -40 -24 -86 -59 -102 -78 -28 -31 -30 -37 -21 -77 12 -52 34 -85 79 -115 58 -40 102 -32 320 56 145 59 199 77 213 70 16 -9 17 -35 17 -324 l0 -315 -1047 -2 c-1039 -3 -1048 -3 -1093 -24 -56 -26 -107 -76 -131 -129 -17 -38 -19 -85 -19 -800 l0 -760 24 -51 c13 -28 41 -65 62 -82 80 -66 -58 -62 1938 -62 l1811 0 50 24 c59 27 117 88 136 142 11 32 14 179 14 790 l0 750 -30 60 c-36 70 -97 116 -175 133 -28 6 -124 11 -214 11 l-164 0 13 38 c9 26 14 168 19 488 l6 451 -45 133 c-43 128 -45 139 -45 251 0 64 3 131 6 148 6 27 10 31 40 31 l34 0 0 80 0 80 -495 0 -495 0 0 -80z"/>
</g>
<g id="layer104" fill="#fed298" stroke="none">
<path d="M2590 4180 l0 -80 35 0 35 0 0 -47 c0 -48 -1 -48 -147 -201 -120 -126 -183 -181 -352 -310 -113 -86 -238 -176 -277 -199 -40 -24 -86 -59 -102 -78 -28 -31 -30 -37 -21 -77 12 -52 34 -85 79 -115 58 -40 102 -32 320 56 145 59 199 77 213 70 16 -9 17 -41 17 -444 l0 -435 -990 0 -990 0 0 -95 0 -95 988 0 989 0 6 -197 c4 -108 7 -269 7 -359 l0 -163 46 -7 c64 -9 164 0 202 20 68 35 84 131 31 190 l-30 35 20 28 c11 15 27 57 35 93 8 36 18 73 21 83 6 14 2 17 -24 17 l-31 0 0 130 0 130 468 -2 467 -3 3 -477 2 -478 -1365 0 -1364 0 -3 113 -3 114 -247 -156 c-136 -86 -248 -158 -247 -161 0 -6 484 -310 493 -310 3 0 6 45 6 100 l0 100 1439 2 1439 3 26 24 26 24 0 627 0 627 -23 21 c-23 22 -26 22 -455 22 l-432 0 38 34 c36 34 37 36 41 120 2 61 7 86 16 86 7 0 15 -17 18 -40 10 -77 68 -130 142 -130 75 0 132 56 137 134 3 43 29 49 46 12 32 -70 122 -74 184 -8 20 22 41 57 46 78 6 22 13 240 16 485 l6 446 -45 133 c-43 128 -45 139 -45 251 0 64 3 131 6 148 6 27 10 31 40 31 l34 0 0 80 0 80 -495 0 -495 0 0 -80z m110 -1686 c0 -79 21 -129 64 -155 l31 -19 -62 0 -63 0 0 120 c0 100 3 120 15 120 12 0 15 -14 15 -66z m-110 -734 c0 -6 -7 -24 -15 -40 -11 -21 -23 -30 -40 -30 -22 0 -25 4 -25 34 0 28 4 35 23 39 41 8 57 7 57 -3z m-33 -161 c33 -12 43 -26 43 -59 0 -35 -17 -50 -57 -50 l-33 0 0 60 c0 63 3 66 47 49z"/>
</g>
<g id="layer105" fill="#fdfefd" stroke="none">
<path d="M2590 4180 l0 -80 495 0 495 0 0 80 0 80 -495 0 -495 0 0 -80z"/>
<path d="M1871 3333 c-18 -7 -47 -30 -88 -69 -23 -23 -30 -37 -26 -53 11 -43 35 -43 104 1 85 53 83 50 63 92 -17 35 -25 40 -53 29z"/>
<path d="M410 2225 l0 -95 990 0 990 0 0 95 0 95 -990 0 -990 0 0 -95z"/>
<path d="M2670 2224 l0 -94 468 -2 467 -3 3 -477 2 -478 -1365 0 -1364 0 -3 113 -3 114 -247 -156 c-136 -86 -248 -158 -247 -161 0 -6 484 -310 493 -310 3 0 6 45 6 100 l0 100 1439 2 1439 3 26 24 26 24 0 627 0 627 -23 22 -24 22 -546 -2 -547 -1 0 -94z"/>
<path d="M2430 1923 c0 -77 5 -88 43 -102 36 -14 76 -14 116 0 l31 11 0 79 0 79 -95 0 -95 0 0 -67z"/>
<path d="M920 1641 l0 -228 31 -7 c86 -17 197 0 236 36 52 48 50 145 -3 187 -26 20 -26 20 -6 41 15 17 62 163 62 195 0 3 -25 5 -55 5 l-54 0 -10 -37 c-5 -21 -13 -51 -17 -68 -10 -44 -32 -75 -54 -75 -18 0 -20 7 -20 90 l0 90 -55 0 -55 0 0 -229z m179 -56 c17 -17 18 -60 1 -80 -7 -8 -25 -15 -41 -15 -29 0 -29 0 -29 61 l0 61 28 -7 c15 -3 33 -12 41 -20z"/>
<path d="M1300 1635 l0 -235 130 0 130 0 0 50 0 50 -75 0 -75 0 0 40 0 40 70 0 70 0 0 45 0 45 -70 0 -70 0 0 50 0 49 78 3 77 3 0 45 0 45 -132 3 -133 3 0 -236z"/>
<path d="M1710 1685 l0 -185 -55 0 -55 0 0 -50 0 -50 160 0 160 0 0 50 0 50 -50 0 -50 0 0 185 0 185 -55 0 -55 0 0 -185z"/>
<path d="M2053 1850 c-63 -38 -73 -77 -73 -275 l0 -176 53 3 52 3 3 169 c3 183 9 206 57 206 49 0 55 -23 55 -208 l0 -172 55 0 55 0 0 173 c0 159 -2 176 -22 217 -14 27 -36 50 -58 62 -48 25 -135 24 -177 -2z"/>
<path d="M2655 1841 c-8 -16 -26 -38 -40 -49 -14 -11 -25 -25 -25 -31 0 -31 -31 -71 -55 -71 -22 0 -25 4 -25 40 0 33 -3 40 -19 40 -11 0 -36 15 -55 34 l-36 33 0 -213 0 -213 46 -7 c64 -9 164 0 202 20 68 35 84 131 31 190 l-30 35 20 28 c11 15 27 57 35 93 8 36 18 73 21 83 6 14 2 17 -24 17 -24 0 -34 -7 -46 -29z m-98 -242 c33 -12 43 -26 43 -59 0 -35 -17 -50 -57 -50 l-33 0 0 60 c0 63 3 66 47 49z"/>
<path d="M2780 1635 l0 -235 58 0 59 0 60 128 c33 70 64 137 69 150 6 15 8 -29 6 -128 l-3 -150 50 0 51 0 0 235 0 235 -55 0 -56 0 -36 -77 c-19 -43 -51 -112 -69 -153 l-34 -75 0 153 0 152 -50 0 -50 0 0 -235z"/>
<path d="M3235 1863 c-32 -8 -37 -18 -30 -65 l7 -45 36 13 c21 7 48 13 62 14 30 0 70 -25 70 -45 0 -15 -45 -51 -92 -74 -80 -40 -110 -126 -66 -191 35 -53 80 -72 160 -68 84 4 93 12 78 67 -9 36 -13 40 -30 31 -26 -14 -83 -12 -104 3 -25 19 -13 52 25 67 50 21 107 68 125 101 19 38 14 97 -11 135 -33 50 -144 78 -230 57z"/>
</g>


</svg>